<?xml version="1.0" encoding="UTF-8"?>
<svg id="Vrstva_1" xmlns="http://www.w3.org/2000/svg" width="1024" height="1024" version="1.1" viewBox="0 0 1024 1024">
  <!-- Generator: Adobe Illustrator 29.7.1, SVG Export Plug-In . SVG Version: 2.1.1 Build 8)  -->
  <defs>
    <style>
      .st0 {
        fill: #426027;
      }
    </style>
  </defs>
  <path class="st0" d="M905.741,501.979c13.361-1.67,25.052-15.867,25.052-28.393s-11.691-18.371-20.042-17.536c-12.526.835-24.217,14.196-25.052,26.722-.836,11.691,8.351,20.878,20.042,19.207Z"/>
  <path class="st0" d="M941.649,578.806c-5.011,0-8.352,2.506-11.691,9.186-5.011,10.022-25.888,44.259-40.084,40.919-11.691-2.505-3.34-27.557,0-38.413l13.361-43.425c1.67-5.01,4.175-15.867,4.175-19.206,0-5.011-4.175-8.352-10.856-8.352-5.845,0-13.361,2.506-15.867,10.022l-3.339,10.856c-2.506,8.351-11.691,38.413-15.032,46.764-6.681,17.537-33.403,51.775-50.94,51.775-5.01,0-6.68-3.34-6.68-7.516,0-15.032,16.701-60.126,16.701-78.497,0-15.032-10.856-23.382-25.888-23.382-23.064,0-41.304,18.604-55.385,37.445l3.611-15.733v-2.505c0-5.846-4.175-11.691-11.691-11.691-8.351,0-14.197,6.68-16.701,16.701l-8.351,34.238c-4.176,15.867-7.516,23.383-15.867,33.404-18.372,22.547-45.93,40.084-64.301,40.084-6.405,0-10.834-1.977-13.644-5.795,12.873-9.645,25.136-19.877,36.191-30.113,20.042-19.207,32.568-37.579,32.568-51.775,0-20.877-14.196-29.228-30.062-29.228-35.909,0-72.652,45.929-72.652,96.869,0,4.167.276,7.952.768,11.419-19.901,12.059-38.319,20.314-47.533,20.314s-16.701-10.855-16.701-23.381c21.713-31.733,78.498-102.716,78.498-142.799,0-18.371-11.691-28.393-26.723-28.393-55.116,0-77.662,121.087-81.003,168.687-18.372,18.372-40.919,39.249-66.807,39.249-11.69,0-18.371-5.011-18.371-17.537,5.01-2.505,7.516-2.505,15.032-5.845,24.217-10.856,53.445-36.743,53.445-65.971,0-17.537-10.856-26.723-25.888-26.723-43.423,1.67-73.487,61.796-73.487,98.539,0,29.229,20.042,43.424,42.59,43.424,25.887,0,53.445-15.867,77.662-37.578,5.845,16.701,16.701,26.722,29.228,26.722,17.537,0,35.909-9.186,51.775-18.371,5.301-3.052,10.6-6.292,15.865-9.679,8.915,12.598,22.841,14.69,30.9,14.69,25.887,0,57.62-20.042,72.652-38.413-1.671,6.68-3.341,11.691-3.341,15.867,0,8.351,7.516,11.69,14.196,11.69s13.362-4.175,15.032-10.855l3.34-12.526c8.351-32.568,33.403-93.529,63.466-93.529,6.68,0,8.351,5.01,5.01,16.701l-8.351,33.403c-1.671,6.681-5.011,20.042-5.011,30.062,0,15.867,9.187,25.888,24.217,25.888,21.182,0,39.456-17.408,54.542-33.245,2.018,14.315,13.913,23.224,27.297,23.224,23.381,0,48.435-26.722,62.631-53.445,1.671-2.506,5.846-12.526,5.846-15.867,0-5.01-3.34-8.351-8.351-8.351ZM520.768,598.848c4.175-17.536,26.723-94.364,44.259-94.364,3.34,0,5.011,2.505,5.011,5.845-.836,28.393-28.393,74.323-52.61,106.055.835-7.515,1.67-11.69,3.339-17.536ZM416.383,614.715c5.845-9.186,13.361-20.042,23.382-20.042,4.175,0,5.846,2.506,5.846,6.681,0,15.031-19.207,35.073-42.59,46.764,2.506-11.691,6.681-22.547,13.362-33.403ZM648.535,568.786c5.01,0,8.351,2.505,8.351,7.515,0,14.851-21.581,37.016-47.197,56.398,2.724-25.727,19.049-63.913,38.847-63.913Z"/>
  <path class="st0" d="M823.902,275.672c13.362,0,25.888-11.691,25.888-25.052,0-10.856-7.516-18.372-16.701-18.372-13.362,0-25.888,10.856-25.888,25.053,0,10.02,5.846,18.371,16.701,18.371Z"/>
  <path class="st0" d="M313.668,438.513c0,32.568,22.548,45.095,40.919,45.095,26.723,0,55.951-25.888,71.817-43.424,4.175,16.701,13.361,28.393,34.239,28.393,19.131,0,32.258-7.824,58.75-30.088,7.521,12.487,20.062,17.562,32.273,17.562,5.846,0,11.691-.835,18.372-2.506,25.052-5.845,38.413-20.042,51.774-34.238l-2.505,13.361v2.506c0,5.845,5.01,10.855,12.526,10.855,9.186,0,15.867-6.68,16.701-13.361,5.845-35.074,15.867-60.961,35.909-83.508,5.845-6.68,11.691-13.361,17.536-17.536,5.011-3.34,8.351-5.01,13.362-5.01,4.175,0,6.68,2.505,6.68,7.516,0,4.175-1.67,10.02-4.175,17.536-3.34,10.02-13.361,35.909-14.196,55.116-.836,17.536,7.516,29.228,25.052,29.228,18.732,0,36.962-14.495,51.99-34.199,3.437,14.503,10.906,23.342,24.002,23.342,11.691,0,21.712-5.01,30.062-10.856,15.032-10.855,29.228-29.228,37.578-49.27,1.671-4.175,2.506-5.845,2.506-9.186,0-4.175-1.67-8.351-8.351-8.351-5.01,0-7.516,3.34-10.022,7.516-8.351,13.361-23.381,43.424-39.248,43.424-11.691,0-7.516-17.537-5.846-24.217l15.867-60.126c.835-3.341,1.671-7.516,1.671-10.856,0-6.681-4.175-10.022-10.856-10.022-7.516,0-15.867,2.506-18.372,13.362l-6.68,25.052c-5.846,21.712-6.681,24.217-9.186,29.228-8.352,15.867-29.229,47.6-44.259,47.6-6.681,0-6.681-4.175-5.846-10.856,3.34-25.887,19.207-60.961,19.207-78.497,0-13.361-10.856-23.382-25.888-23.382-24.217,0-45.094,22.548-59.29,42.59l5.845-20.042c.835-2.506.835-1.671.835-4.175,0-7.516-6.68-10.856-12.526-10.856-3.339,0-6.68,1.67-9.186,5.01-5.845,7.516-7.516,23.382-14.196,45.93-4.175,14.196-9.187,26.722-20.042,40.083-10.856,13.362-25.888,25.888-36.743,30.898-5.846,2.506-14.197,5.01-20.042,5.01-7.51,0-12.604-4.14-15.29-11.525,21.803-12.176,70.405-42.388,70.405-76.158,0-20.877-15.032-30.898-30.897-30.898-35.909,0-73.488,48.435-73.488,97.704,0,3.596.233,6.939.651,10.066-19.259,13.952-32.457,21.667-43.24,21.667-6.681,0-10.856-3.34-13.361-10.856-2.293-6.878-2.487-13.061-2.503-20.46,47.69-55.402,90.186-121.85,90.186-159.082,0-15.032-6.68-30.898-25.887-30.898-32.568,0-53.445,43.424-64.301,70.147-15.867,38.413-28.393,89.354-30.062,125.262-8.352,8.351-38.414,40.919-61.797,40.919-9.951,0-14.774-6.226-15.931-16.489,36.048-12.199,66.303-38.876,70.212-67.019,2.505-16.701-5.011-30.062-24.217-31.733-41.755-3.34-78.498,55.116-78.498,97.704ZM583.399,334.963c5.01,0,8.351,3.34,8.351,10.02,0,18.366-28.079,39.716-47.349,52.432,2.602-32.778,25.618-62.453,38.998-62.453ZM514.088,248.114c5.845,0,6.68,5.846,5.845,12.526-3.754,26.284-36.106,76.339-62.088,112.325,9.56-52.095,35.009-124.851,56.243-124.851ZM384.65,363.356c4.175,0,7.516,2.505,7.516,6.68,0,8.542-13.008,35.124-44.371,46.87,4.573-22.455,20.341-53.55,36.855-53.55Z"/>
  <path class="st0" d="M893.215,689.873c-5.846,0-15.867,6.68-34.239,18.371-58.455,36.743-160.336,98.54-248.854,98.54-8.352,0-20.042-.835-30.063-1.67l17.536-10.856,35.074-23.382c5.01-2.505,7.516-6.681,7.516-10.021s-3.34-6.681-7.516-6.681c-2.505,0-7.516,1.67-11.691,4.175l-29.228,16.702c-23.383,13.361-45.929,26.723-60.126,24.217-39.249-6.681-63.466-15.031-90.188-26.723-39.249-17.537-58.456-35.074-70.982-44.259-21.712-15.867-34.238-25.887-55.951-25.887h-6.68l47.6-72.652c6.68-8.351,11.69-15.867,15.867-24.217,3.339-6.681,4.175-10.022,4.175-14.197,0-7.516-4.175-11.691-9.187-11.691-5.845,0-20.877,9.187-39.248,8.351l-19.207-.835c-15.032-.835-26.723,10.022-30.898,25.052-3.34,13.362,3.341,18.372,8.351,18.372,4.175,0,7.516-6.681,10.022-10.021,4.175-5.845,9.186-10.855,17.536-10.855,9.359,0,19.768-.001,30.197-1.912-2.736,3.421-5.369,6.842-7.649,10.262l-60.961,90.188c-3.34,5.01-6.681,7.516-6.681,13.361,0,6.681,4.175,11.691,10.856,11.691s15.031-6.68,27.557-6.68c35.074,0,73.488,41.754,87.684,64.301,7.516,11.691,24.217,46.765,25.887,51.775,1.671,5.011,5.846,6.681,10.022,6.681,6.681,0,8.351-5.846,8.351-7.516,0-5.846-12.526-34.238-25.052-55.95,30.897,14.196,102.715,45.094,189.563,45.094,58.455,0,86.013-13.361,120.251-22.547,12.527-3.34,18.372-4.175,22.548-4.175l33.403.835c20.042.835,40.919-1.67,50.94-5.011,6.681-2.505,8.351-5.846,8.351-10.021,0-10.021-10.022-8.351-15.867-7.516-5.845.835-16.701,1.67-26.723,1.67-6.68,0-13.361,0-18.371-.835,40.919-22.547,80.168-46.765,116.911-71.817,5.01-3.341,7.516-8.351,7.516-12.526,0-6.681-5.011-9.186-8.351-9.186Z"/>
  <path class="st0" d="M305.317,387.573c7.516-22.548,17.537-58.456,30.063-86.013,10.021-21.713,15.867-28.393,25.052-40.92,2.505-3.339,3.341-5.01,3.341-8.351,0-4.175-.836-6.68-3.341-9.186-4.175-4.175-10.022-5.845-15.867-2.506-3.51,1.755-19.464,11.113-38.176,19.603-14.303,4.613-25.065-7.128-33.641-19.603-1.67-2.505-5.845-6.68-10.02-4.175-8.544,4.601-3.116,22.646,10.978,35.825-6.32,1.616-12.332,2.589-17.659,2.589-9.186,0-39.249-2.506-47.6-40.084l-3.34-15.867c-.835-3.34-2.505-9.186-8.351-9.186-7.516,0-11.691,12.526-11.691,25.887,0,16.629,6.628,29.578,17.431,41.535-2.152-.17-4.333-.367-6.575-.616-51.775-5.845-59.291-50.104-59.291-85.178,0-8.351-3.34-16.701-10.856-16.701-13.361,0-14.196,25.888-14.196,35.074,0,65.136,44.259,98.539,108.56,98.539,18.637,0,54.959-2.869,90.576-20.834-14.627,28.578-17.149,40.237-22.935,59.249-8.351,27.558-21.713,63.465-28.393,79.332-13.361,31.733-39.249,70.982-79.333,70.982-30.063,0-45.929-23.383-45.929-45.094,0-15.867,9.186-30.064,21.712-41.755,5.846-5.845,11.691-8.351,11.691-15.031,0-8.351-7.516-11.691-14.196-9.187-33.403,14.197-50.94,42.59-50.94,70.982,0,38.413,30.898,71.817,75.993,71.817,41.754,0,81.003-29.229,102.715-77.662,6.681-15.032,18.372-45.93,24.217-63.466Z"/>
  <path class="st0" d="M228.49,623.901c-2.505,0-5.01,1.671-7.516,4.175-5.01,5.011-11.691,6.681-19.206,6.681-3.341,0-7.516,0-10.856-.835,9.186-24.217,6.681-40.084-9.186-40.084-21.712,0-34.239,37.578-14.197,51.775-7.516,23.381-32.568,73.487-48.435,73.487-16.702,0,2.505-66.807,5.846-82.674,3.34-15.031,4.175-35.909-12.526-35.909-15.867,0-38.414,19.207-38.414,33.404,0,5.01,2.505,9.186,8.351,9.186,6.681,0,12.526-4.175,16.702-7.516-6.681,20.877-12.526,43.424-14.196,65.136-1.67,24.217,4.175,45.094,26.723,45.094,37.579,0,60.961-58.455,74.322-93.529,5.01.835,10.021,1.671,15.031,1.671,17.537,0,33.404-7.516,35.074-21.713.835-5.845-3.341-8.351-7.516-8.351Z"/>
</svg>