<?xml version="1.0" encoding="UTF-8"?>
<svg id="Vrstva_1" xmlns="http://www.w3.org/2000/svg" width="112" height="112" version="1.1" viewBox="0 0 112 112">
  <!-- Generator: Adobe Illustrator 30.1.0, SVG Export Plug-In . SVG Version: 2.1.1 Build 136)  -->
  <defs>
    <style>
      .st0 {
        fill: #3e6ea1;
      }
    </style>
  </defs>
  <path class="st0" d="M49.7066,80.829c-.8512,2.6598-2.1279,3.4045-7.0213,4.1492-3.4045.6381-6.3832.4254-8.4045-.2127-2.6594-.8512-9.6807-5.532-7.766-11.5959,2.0213-6.0639,10.4258-5.6385,13.2979-4.7873,1.7021.6381,3.8299,1.702,6.7025,4.6807,3.298,3.4045,4.1488,4.6812,3.1914,7.766M52.1533,88.1695c2.234,1.5959,2.6598,2.9787,1.9152,7.8725-.532,3.4041-1.7025,6.1701-2.8726,7.9787-1.702,2.234-8.2979,7.5533-13.4045,3.7234-5.2127-3.7234-2.234-11.5959-.4254-14.0426,1.0639-1.4894,2.766-3.1914,6.4893-4.8934,4.1492-2.1279,5.7447-2.5533,8.298-.6385M59.9193,88.0634c2.234-1.5959,3.7238-1.4894,8.0853.6381,3.0852,1.5959,5.4258,3.5106,6.7025,5.2127,1.5955,2.3406,4.5741,10.2131-.532,13.9365-5.2131,3.7234-11.8086-1.4894-13.6172-3.9361-1.0639-1.4894-2.0213-3.6172-2.6598-7.6599-.6381-4.6807-.5315-6.2766,2.0213-8.1914M62.2598,80.7228c-.8512-2.6598-.3193-4.0426,3.1914-7.5533,2.4472-2.4467,4.8939-4.0426,6.9152-4.6812,2.766-.9574,11.1701-1.2762,13.0852,4.7873,2.0213,6.0639-5,10.6385-7.8725,11.5959-1.8086.532-4.1488.8512-8.1914.2127-4.5746-.8508-6.0639-1.3828-7.1279-4.3615M55.9832,76.1482c-2.8726,0-4.468-.6381-5.8512-5.3193-1.2766-4.1488-5.8508-52.6603-5.8508-54.7877,0-6.0639,5.8508-13.1918,11.702-13.1918s11.702,7.1279,11.702,13.1918c0,2.1274-4.5742,50.6389-5.8508,54.7877-1.3832,4.6812-2.9787,5.3193-5.8512,5.3193"/>
</svg>