<?xml version="1.0" encoding="UTF-8" standalone="no"?><!DOCTYPE svg PUBLIC "-//W3C//DTD SVG 1.1//EN" "http://www.w3.org/Graphics/SVG/1.1/DTD/svg11.dtd"><svg width="100%" height="100%" viewBox="0 0 4267 4267" version="1.1" xmlns="http://www.w3.org/2000/svg" xmlns:xlink="http://www.w3.org/1999/xlink" xml:space="preserve" xmlns:serif="http://www.serif.com/" style="fill-rule:evenodd;clip-rule:evenodd;stroke-linejoin:round;stroke-miterlimit:2;"><path d="M3773.921,2091.579c55.671,-6.958 104.383,-66.113 104.383,-118.304c0,-52.192 -48.713,-76.546 -83.508,-73.067c-52.192,3.479 -100.904,59.15 -104.383,111.342c-3.483,48.712 34.796,86.992 83.508,80.029Z" style="fill:#8a8a8a;fill-rule:nonzero;"/><path d="M3923.538,2411.692c-20.879,0 -34.8,10.442 -48.713,38.275c-20.879,41.758 -107.867,184.412 -167.017,170.496c-48.713,-10.438 -13.917,-114.821 0,-160.054l55.671,-180.938c6.958,-20.875 17.396,-66.112 17.396,-80.025c0,-20.879 -17.396,-34.8 -45.233,-34.8c-24.354,0 -55.671,10.442 -66.112,41.758l-13.913,45.233c-10.442,34.796 -48.713,160.054 -62.633,194.85c-27.838,73.071 -139.179,215.729 -212.25,215.729c-20.875,0 -27.833,-13.917 -27.833,-31.317c0,-62.633 69.588,-250.525 69.588,-327.071c0,-62.633 -45.233,-97.425 -107.867,-97.425c-96.1,0 -172.1,77.517 -230.771,156.021l15.046,-65.554l0,-10.438c0,-24.358 -17.396,-48.713 -48.713,-48.713c-34.796,0 -59.154,27.833 -69.588,69.588l-34.796,142.658c-17.4,66.112 -31.317,97.429 -66.113,139.183c-76.55,93.946 -191.375,167.017 -267.921,167.017c-26.688,0 -45.142,-8.237 -56.85,-24.146c53.638,-40.188 104.733,-82.821 150.796,-125.471c83.508,-80.029 135.7,-156.579 135.7,-215.729c0,-86.987 -59.15,-121.783 -125.258,-121.783c-149.621,0 -302.717,191.371 -302.717,403.621c0,17.363 1.15,33.133 3.2,47.579c-82.921,50.246 -159.662,84.642 -198.054,84.642c-38.392,0 -69.588,-45.229 -69.588,-97.421c90.471,-132.221 327.075,-427.983 327.075,-594.996c0,-76.546 -48.713,-118.304 -111.346,-118.304c-229.65,0 -323.592,504.529 -337.512,702.863c-76.55,76.55 -170.496,163.537 -278.362,163.537c-48.708,0 -76.546,-20.879 -76.546,-73.071c20.875,-10.438 31.317,-10.438 62.633,-24.354c100.904,-45.233 222.688,-153.096 222.688,-274.879c0,-73.071 -45.233,-111.346 -107.867,-111.346c-180.929,6.958 -306.196,257.483 -306.196,410.579c0,121.787 83.508,180.933 177.458,180.933c107.862,0 222.688,-66.113 323.592,-156.575c24.354,69.588 69.588,111.342 121.783,111.342c73.071,0 149.621,-38.275 215.729,-76.546c22.088,-12.717 44.167,-26.217 66.104,-40.329c37.146,52.492 95.171,61.208 128.75,61.208c107.863,0 240.083,-83.508 302.717,-160.054c-6.963,27.833 -13.921,48.713 -13.921,66.112c0,34.796 31.317,48.708 59.15,48.708c27.833,0 55.675,-17.396 62.633,-45.229l13.917,-52.192c34.796,-135.7 139.179,-389.704 264.442,-389.704c27.833,0 34.796,20.875 20.875,69.588l-34.796,139.179c-6.963,27.838 -20.879,83.508 -20.879,125.258c0,66.112 38.279,107.867 100.904,107.867c88.258,0 164.4,-72.533 227.258,-138.521c8.408,59.646 57.971,96.767 113.738,96.767c97.421,0 201.813,-111.342 260.963,-222.688c6.963,-10.442 24.358,-52.192 24.358,-66.113c0,-20.875 -13.917,-34.796 -34.796,-34.796l-0.004,-0.013Zm-1753.671,83.508c17.396,-73.067 111.346,-393.183 184.413,-393.183c13.917,0 20.879,10.438 20.879,24.354c-3.483,118.304 -118.304,309.679 -219.208,441.896c3.479,-31.312 6.958,-48.708 13.912,-73.067l0.004,0Zm-434.938,66.113c24.354,-38.275 55.671,-83.508 97.425,-83.508c17.396,0 24.358,10.442 24.358,27.838c0,62.629 -80.029,146.138 -177.458,194.85c10.442,-48.713 27.837,-93.946 55.675,-139.179Zm967.3,-191.371c20.875,0 34.796,10.438 34.796,31.312c0,61.879 -89.921,154.233 -196.654,234.992c11.35,-107.196 79.371,-266.304 161.862,-266.304l-0.004,0Z" style="fill:#8a8a8a;fill-rule:nonzero;"/><path d="M3432.925,1148.633c55.675,0 107.867,-48.712 107.867,-104.383c0,-45.233 -31.317,-76.55 -69.588,-76.55c-55.675,0 -107.867,45.233 -107.867,104.388c0,41.75 24.358,76.546 69.588,76.546Z" style="fill:#8a8a8a;fill-rule:nonzero;"/><path d="M1306.95,1827.138c0,135.7 93.95,187.896 170.496,187.896c111.346,0 233.129,-107.867 299.237,-180.933c17.396,69.588 55.671,118.304 142.662,118.304c79.713,0 134.408,-32.6 244.792,-125.367c31.337,52.029 83.592,73.175 134.471,73.175c24.358,0 48.713,-3.479 76.55,-10.442c104.383,-24.354 160.054,-83.508 215.725,-142.658l-10.438,55.671l0,10.442c0,24.354 20.875,45.229 52.192,45.229c38.275,0 66.112,-27.833 69.588,-55.671c24.354,-146.142 66.112,-254.004 149.621,-347.95c24.354,-27.833 48.713,-55.671 73.067,-73.067c20.879,-13.917 34.796,-20.875 55.675,-20.875c17.396,0 27.833,10.438 27.833,31.317c0,17.396 -6.958,41.75 -17.396,73.067c-13.917,41.75 -55.671,149.621 -59.15,229.65c-3.483,73.067 31.317,121.783 104.383,121.783c78.05,0 154.008,-60.396 216.625,-142.496c14.321,60.429 45.442,97.258 100.008,97.258c48.713,0 90.467,-20.875 125.258,-45.233c62.633,-45.229 121.783,-121.783 156.575,-205.292c6.963,-17.396 10.442,-24.354 10.442,-38.275c0,-17.396 -6.958,-34.796 -34.796,-34.796c-20.875,0 -31.317,13.917 -41.758,31.317c-34.796,55.671 -97.421,180.933 -163.533,180.933c-48.713,0 -31.317,-73.071 -24.358,-100.904l66.112,-250.525c3.479,-13.921 6.963,-31.317 6.963,-45.233c0,-27.837 -17.396,-41.758 -45.233,-41.758c-31.317,0 -66.112,10.442 -76.55,55.675l-27.833,104.383c-24.358,90.467 -27.838,100.904 -38.275,121.783c-34.8,66.112 -121.787,198.333 -184.412,198.333c-27.838,0 -27.838,-17.396 -24.358,-45.233c13.917,-107.862 80.029,-254.004 80.029,-327.071c0,-55.671 -45.233,-97.425 -107.867,-97.425c-100.904,0 -187.892,93.95 -247.042,177.458l24.354,-83.508c3.479,-10.442 3.479,-6.962 3.479,-17.396c0,-31.317 -27.833,-45.233 -52.192,-45.233c-13.913,0 -27.833,6.958 -38.275,20.875c-24.354,31.317 -31.317,97.425 -59.15,191.375c-17.396,59.15 -38.279,111.342 -83.508,167.012c-45.233,55.675 -107.867,107.867 -153.096,128.742c-24.358,10.442 -59.154,20.875 -83.508,20.875c-31.292,0 -52.517,-17.25 -63.708,-48.021c90.846,-50.733 293.354,-176.617 293.354,-317.325c0,-86.988 -62.633,-128.742 -128.738,-128.742c-149.621,0 -306.2,201.812 -306.2,407.1c0,14.983 0.971,28.913 2.712,41.942c-80.246,58.133 -135.237,90.279 -180.167,90.279c-27.838,0 -45.233,-13.917 -55.671,-45.233c-9.554,-28.658 -10.363,-54.421 -10.429,-85.25c198.708,-230.842 375.775,-507.708 375.775,-662.842c0,-62.633 -27.833,-128.742 -107.862,-128.742c-135.7,0 -222.687,180.933 -267.921,292.279c-66.113,160.054 -118.304,372.308 -125.258,521.925c-34.8,34.796 -160.058,170.496 -257.487,170.496c-41.463,0 -61.558,-25.942 -66.379,-68.704c150.2,-50.829 276.263,-161.983 292.55,-279.246c10.437,-69.588 -20.879,-125.258 -100.904,-132.221c-173.979,-13.917 -327.075,229.65 -327.075,407.1l0,-0.008Zm1123.879,-431.458c20.875,0 34.796,13.917 34.796,41.75c0,76.525 -116.996,165.483 -197.287,218.467c10.842,-136.575 106.742,-260.221 162.492,-260.221l0,0.004Zm-288.796,-361.871c24.354,0 27.833,24.358 24.354,52.192c-15.642,109.517 -150.442,318.079 -258.7,468.021c39.833,-217.062 145.871,-520.212 234.346,-520.212Zm-539.325,480.175c17.396,0 31.317,10.438 31.317,27.833c0,35.592 -54.2,146.35 -184.879,195.292c19.054,-93.562 84.754,-223.125 153.562,-223.125Z" style="fill:#8a8a8a;fill-rule:nonzero;"/><path d="M3721.729,2874.471c-24.358,0 -66.112,27.833 -142.662,76.546c-243.563,153.096 -668.067,410.583 -1036.892,410.583c-34.8,0 -83.508,-3.479 -125.263,-6.958l73.067,-45.233l146.142,-97.425c20.875,-10.438 31.317,-27.838 31.317,-41.754c0,-13.917 -13.917,-27.838 -31.317,-27.838c-10.438,0 -31.317,6.958 -48.713,17.396l-121.783,69.592c-97.429,55.671 -191.371,111.346 -250.525,100.904c-163.538,-27.838 -264.442,-62.629 -375.783,-111.346c-163.537,-73.071 -243.567,-146.142 -295.758,-184.412c-90.467,-66.112 -142.658,-107.862 -233.129,-107.862l-27.833,0l198.333,-302.717c27.833,-34.796 48.708,-66.112 66.113,-100.904c13.912,-27.838 17.396,-41.758 17.396,-59.154c0,-31.317 -17.396,-48.713 -38.279,-48.713c-24.354,0 -86.987,38.279 -163.533,34.796l-80.029,-3.479c-62.633,-3.479 -111.346,41.758 -128.742,104.383c-13.917,55.675 13.921,76.55 34.796,76.55c17.396,0 31.317,-27.838 41.758,-41.754c17.396,-24.354 38.275,-45.229 73.067,-45.229c38.996,0 82.367,-0.004 125.821,-7.967c-11.4,14.254 -22.371,28.508 -31.871,42.758l-254.004,375.783c-13.917,20.875 -27.837,31.317 -27.837,55.671c0,27.838 17.396,48.713 45.233,48.713c27.837,0 62.629,-27.833 114.821,-27.833c146.142,0 306.2,173.975 365.35,267.921c31.317,48.713 100.904,194.854 107.862,215.729c6.962,20.879 24.358,27.838 41.758,27.838c27.838,0 34.796,-24.358 34.796,-31.317c0,-24.358 -52.192,-142.658 -104.383,-233.125c128.737,59.15 427.979,187.892 789.846,187.892c243.562,0 358.387,-55.671 501.046,-93.946c52.196,-13.917 76.55,-17.396 93.95,-17.396l139.179,3.479c83.508,3.479 170.496,-6.958 212.25,-20.879c27.838,-10.438 34.796,-24.358 34.796,-41.754c0,-41.754 -41.758,-34.796 -66.112,-31.317c-24.354,3.479 -69.588,6.958 -111.346,6.958c-27.833,0 -55.671,0 -76.546,-3.479c170.496,-93.946 334.033,-194.854 487.129,-299.238c20.875,-13.921 31.317,-34.796 31.317,-52.192c0,-27.838 -20.879,-38.275 -34.796,-38.275l-0.004,0.004Z" style="fill:#8a8a8a;fill-rule:nonzero;"/><path d="M1272.154,1614.888c31.317,-93.95 73.071,-243.567 125.263,-358.388c41.754,-90.471 66.113,-118.304 104.383,-170.5c10.438,-13.912 13.921,-20.875 13.921,-34.796c0,-17.396 -3.483,-27.833 -13.921,-38.275c-17.396,-17.396 -41.758,-24.354 -66.113,-10.442c-14.625,7.312 -81.1,46.304 -159.067,81.679c-59.596,19.221 -104.438,-29.7 -140.171,-81.679c-6.958,-10.438 -24.354,-27.833 -41.75,-17.396c-35.6,19.171 -12.983,94.358 45.742,149.271c-26.333,6.733 -51.383,10.787 -73.579,10.787c-38.275,0 -163.538,-10.442 -198.333,-167.017l-13.917,-66.112c-3.479,-13.917 -10.438,-38.275 -34.796,-38.275c-31.317,0 -48.712,52.192 -48.712,107.863c0,69.288 27.617,123.242 72.629,173.062c-8.967,-0.708 -18.054,-1.529 -27.396,-2.567c-215.729,-24.354 -247.046,-208.767 -247.046,-354.908c0,-34.796 -13.917,-69.587 -45.233,-69.587c-55.671,0 -59.15,107.867 -59.15,146.142c0,271.4 184.412,410.579 452.333,410.579c77.654,0 228.996,-11.954 377.4,-86.808c-60.946,119.075 -71.454,167.654 -95.562,246.871c-34.796,114.825 -90.471,264.438 -118.304,330.55c-55.671,132.221 -163.537,295.758 -330.554,295.758c-125.262,0 -191.371,-97.429 -191.371,-187.892c0,-66.113 38.275,-125.267 90.467,-173.979c24.358,-24.354 48.713,-34.796 48.713,-62.629c0,-34.796 -31.317,-48.713 -59.15,-38.279c-139.179,59.154 -212.25,177.458 -212.25,295.758c0,160.054 128.742,299.237 316.637,299.237c173.975,0 337.512,-121.787 427.979,-323.592c27.837,-62.633 76.55,-191.375 100.904,-264.442l0.004,0.004Z" style="fill:#8a8a8a;fill-rule:nonzero;"/><path d="M952.042,2599.588c-10.438,0 -20.875,6.963 -31.317,17.396c-20.875,20.879 -48.712,27.838 -80.025,27.838c-13.921,0 -31.317,0 -45.233,-3.479c38.275,-100.904 27.838,-167.017 -38.275,-167.017c-90.467,0 -142.663,156.575 -59.154,215.729c-31.317,97.421 -135.7,306.196 -201.812,306.196c-69.592,0 10.438,-278.363 24.358,-344.475c13.917,-62.629 17.396,-149.621 -52.192,-149.621c-66.113,0 -160.058,80.029 -160.058,139.183c0,20.875 10.437,38.275 34.796,38.275c27.837,0 52.192,-17.396 69.592,-31.317c-27.837,86.987 -52.192,180.933 -59.15,271.4c-6.958,100.904 17.396,187.892 111.346,187.892c156.579,0 254.004,-243.563 309.675,-389.704c20.875,3.479 41.754,6.963 62.629,6.963c73.071,0 139.183,-31.317 146.142,-90.471c3.479,-24.354 -13.921,-34.796 -31.317,-34.796l-0.004,0.008Z" style="fill:#8a8a8a;fill-rule:nonzero;"/></svg>