<?xml version="1.0" encoding="UTF-8"?>
<svg id="Vrstva_1" xmlns="http://www.w3.org/2000/svg" width="277.0551" height="161.8635" version="1.1" viewBox="0 0 277.0551 161.8635">
  <!-- Generator: Adobe Illustrator 30.1.0, SVG Export Plug-In . SVG Version: 2.1.1 Build 136)  -->
  <defs>
    <style>
      .st0 {
        fill: #3e6ea1;
      }
    </style>
  </defs>
  <path class="st0" d="M130.1628,81.1555c-.8827,2.7581-2.2065,3.5303-7.2807,4.3025-3.5303.6617-6.619.4411-8.715-.2206-2.7577-.8827-10.0383-5.7363-8.0529-12.0243,2.096-6.2879,10.811-5.8468,13.7892-4.9641,1.7649.6617,3.9714,1.7649,6.9501,4.8536,3.4198,3.5303,4.302,4.8541,3.3093,8.0529M132.6999,88.7673c2.3165,1.6548,2.7581,3.0887,1.9859,8.1634-.5516,3.5298-1.7654,6.398-2.9787,8.2734-1.7649,2.3166-8.6045,7.8323-13.8997,3.8609-5.4053-3.8609-2.3165-12.0243-.4411-14.5614,1.1032-1.5444,2.8682-3.3093,6.7291-5.0742,4.3025-2.2065,5.9569-2.6476,8.6045-.6621M140.7528,88.6572c2.3165-1.6549,3.8613-1.5444,8.3839.6617,3.1992,1.6548,5.6263,3.6403,6.9501,5.4053,1.6544,2.427,4.7431,10.5904-.5516,14.4513-5.4057,3.8609-12.2448-1.5444-14.1202-4.0815-1.1032-1.5444-2.096-3.7509-2.7581-7.9428-.6617-4.8536-.5512-6.5085,2.096-8.494M143.1798,81.0455c-.8827-2.7581-.331-4.192,3.3093-7.8323,2.5376-2.5371,5.0747-4.192,7.1706-4.8541,2.8682-.9928,11.5827-1.3234,13.5686,4.9641,2.096,6.2879-5.1847,11.0315-8.1634,12.0243-1.8754.5516-4.302.8827-8.494.2205-4.7436-.8822-6.2879-1.4339-7.3912-4.5226M136.6713,76.3019c-2.9787,0-4.6331-.6617-6.0674-5.5158-1.3238-4.302-6.0669-54.6056-6.0669-56.8116,0-6.2879,6.0669-13.6791,12.1343-13.6791s12.1343,7.3912,12.1343,13.6791c0,2.206-4.7431,52.5096-6.0669,56.8116-1.4343,4.8541-3.0887,5.5158-6.0674,5.5158"/>
  <path class="st0" d="M.5983,147.9806c1.2672-.1313,2.5344-.4367,3.8012-.8301.175-.8301.2184-1.7477.2184-2.6653v-13.6752c0-2.5778-.0871-4.4125-.2184-6.0294-1.2668-.3929-2.534-.6993-3.8012-.8296,0-.8743.0875-1.7914.3496-2.6657,1.8785,0,3.9321.088,6.3352.088,2.9707,0,6.1165-.2188,8.3888-.2188,5.9852,0,8.7813,3.8883,8.7813,8.2575,0,5.1993-5.1551,10.6603-11.2282,10.6603-1.1359,0-2.1848-.0433-3.1895-.1746v3.6266c0,1.2668.0442,2.4902.175,3.6262,1.7477.1308,3.3641.4367,4.7621.8301.0438.9614-.0438,1.8348-.3059,2.6648-1.8352-.0871-4.9367-.0871-7.2962-.0871-2.4465,0-4.5005.0871-6.4227.0871-.2621-.8734-.3496-1.7914-.3496-2.6648M10.0355,124.9558v11.1849c.8743.0433,1.7914.0871,2.709.0871,2.1411,0,4.1509-.8301,4.3692-1.0484,1.0047-.8743,1.6602-2.5345,1.6602-4.7188,0-2.5778-1.3985-5.5922-4.6751-5.5922-1.2672,0-2.709.0433-4.0633.0875"/>
  <path class="st0" d="M26.9873,148.1118c1.2235-.1313,2.6215-.4371,3.4954-.743.1313-.9614.1746-1.5726.1746-2.4465v-11.1849c-1.1359-.3496-2.3152-.568-3.4512-.6993-.2621-.7863-.3496-1.5726-.175-2.3157,2.1411-.7859,4.7188-1.3539,7.3404-1.5726l.5238.3496c.3059.7426.7863,2.534,1.0051,3.5824,1.3981-2.0535,3.4074-3.8445,6.1165-3.8445,1.5293,0,2.7966.2184,3.845.6117,0,3.1457-.175,5.5922-.8301,7.9949-1.0922.3934-2.2719.3934-3.2766,0-.1313-1.3543-.3496-3.3641-.6117-4.4996-.3063-.0442-.568-.0442-.9176-.0442-1.2672,0-2.7966.7863-4.3255,3.277v7.4712c0,1.1793.0438,2.2281.1308,3.277,1.8785.1308,4.0196.4367,5.1555.7863,0,.8301-.0875,2.0531-.3059,2.5336-1.5731-.0433-5.4609-.0871-7.4707-.0871-2.5344,0-4.4563.0871-6.1169.0871-.175-.4367-.3059-1.6164-.3059-2.5336M35.7257,127.0962l-5.1993-7.7328c.4371-.8305,1.136-1.3547,2.0098-1.7044l4.9367,4.7626,4.6751-4.7626c.8738.175,1.4856.743,1.9223,1.5293l-4.8059,7.5145c-1.1797.3063-2.3594.4376-3.5387.3934"/>
  <path class="st0" d="M48.002,148.1117c1.2235-.1313,2.6215-.4809,3.4949-.7863.1313-.8743.175-1.5293.175-2.4032v-11.272c-1.136-.3059-2.3152-.5684-3.4516-.6993-.2184-.7426-.3059-1.4856-.1746-2.2719,2.5778-.9172,5.6793-1.4418,8.5634-1.5731l.4804.4376c-.1313,4.3683-.175,7.7766-.175,12.5825v1.9223c0,1.1797.0438,2.2281.1313,3.277,1.1797.1308,2.4902.4367,3.2766.7863,0,.8301-.0871,2.0535-.2621,2.534-1.1797-.0438-4.1504-.0875-5.6793-.0875-2.5345,0-4.413.0875-6.0731.0875-.175-.4371-.3059-1.6169-.3059-2.534M50.3615,123.3829c0-1.8348,1.6164-4.1071,3.6262-4.1071,1.5726,0,3.1891,1.1797,3.1891,2.8836,0,1.9223-1.6164,4.0633-3.67,4.0633-1.4418,0-3.1453-1.2235-3.1453-2.8399"/>
  <path class="st0" d="M62.4195,159.0779c1.2239-.1308,2.622-.4371,3.4954-.7425.1313-.9614.175-1.5731.175-2.4469v-22.151c-1.1364-.3496-2.3161-.568-3.4516-.6993-.2625-.7863-.3496-1.5726-.1746-2.3157,2.1402-.7859,4.6746-1.3539,7.2957-1.5722l.5684.3492c.1746.4371.3929,1.223.568,2.0093,1.6602-1.3101,3.8883-2.4027,6.6407-2.4027,4.7188,0,7.9516,4.1071,7.9516,10.5732,0,5.4176-3.9321,11.4033-9.3935,11.4033-1.6597,0-3.2766-.568-4.7621-1.4856v5.4176c0,1.1797.0438,2.2281.1313,3.2766,1.6602.0875,3.7575.3934,5.1555.7868,0,.8738-.0875,2.0094-.2625,2.4902-2.4027-.0433-5.2426-.0875-7.5583-.0875-2.534,0-4.2817.0875-6.0731.0875-.1746-.4367-.3059-1.5726-.3059-2.4902M71.3325,134.2616v11.0541c1.2668,1.1355,3.0145,2.0531,4.7621,2.0531.9181,0,1.9227-.4367,2.1848-.7863,1.0917-1.3543,1.8785-3.4516,1.8785-5.7235,0-4.0196-1.5731-7.9079-4.6746-7.9079-1.1364,0-2.7528.5675-4.1509,1.3106"/>
  <path class="st0" d="M88.895,140.5091c0-5.3735,3.8012-11.4033,10.399-11.4033,6.7277,0,9.8302,4.5876,9.8302,10.7044,0,5.3739-3.8012,11.4032-10.3981,11.4032s-9.831-4.5-9.831-10.7044M101.9589,146.7572c1.0484-1.2235,1.8348-3.3641,1.8348-5.8106,0-3.4079-1.3543-8.1267-5.2426-8.1267-.7863,0-2.0973.2183-2.4907.6988-1.0484,1.2235-1.8348,3.4083-1.8348,5.8548,0,3.4079,1.3543,8.1262,5.2426,8.1262.7868,0,2.0973-.2184,2.4907-.7426"/>
  <path class="st0" d="M112.3568,148.1117c1.2235-.1313,2.6215-.4371,3.4949-.743.1313-.9609.175-1.5726.175-2.4465v-11.1849c-1.1364-.3496-2.3161-.568-3.4516-.6993-.2625-.7426-.3496-1.5726-.1746-2.3156,2.1406-.7859,4.718-1.3539,7.2957-1.5722l.5684.3492c.1746.4371.3929,1.2672.6113,2.0973,1.7481-1.4418,3.8887-2.4907,6.3352-2.4907,2.4032,0,4.413.9176,5.5052,2.9712,1.8352-1.6602,4.1504-2.9712,6.8594-2.9712,3.6262,0,6.379,2.0973,6.379,6.8599v8.0825c0,1.1797.0433,2.2281.1308,3.277,1.1359.1308,2.4902.4367,3.277.7863,0,.8301-.088,2.0535-.3063,2.5336-1.1355-.0433-4.1504-.0871-5.636-.0871-2.1844,0-3.8445.0871-5.3739.0871-.1308-.4367-.2183-1.6164-.2183-2.5336.9176-.175,1.966-.4371,2.709-.743.1308-.9609.1746-1.5726.1746-2.4465v-6.7282c0-3.0149-.3929-5.243-3.1891-5.243-1.486,0-2.9274.5675-4.0638,1.3105.0875.5247.1313,1.0927.1313,1.7044v8.0825c0,1.1797.0438,2.2281.0871,3.277.918.1741,1.7914.4367,2.4469.7863,0,.8301-.0875,2.0535-.2621,2.5336-1.0051-.0433-3.4949-.0871-4.8059-.0871-2.1848,0-3.845.0871-5.1555.0871-.1746-.4367-.3059-1.6164-.3059-2.5336.9614-.2188,1.8352-.4371,2.5778-.743.1308-.9609.175-1.5726.175-2.4465v-6.7282c0-3.0149-.3934-5.243-3.1895-5.243-1.3981,0-2.7528.5242-3.8887,1.2235v9.8739c0,1.1797.0438,2.2281.1313,3.277.9172.1308,1.966.4367,2.5778.7863,0,.8301-.0875,2.0535-.2183,2.5336-1.0489-.0433-3.7142-.0871-5.0247-.0871-2.534,0-4.413.0871-6.0731.0871-.1746-.4367-.3054-1.6164-.3054-2.5336"/>
  <path class="st0" d="M151.6343,148.1117c1.2235-.1313,2.6215-.4371,3.4949-.743.1313-.9609.175-1.5726.175-2.4465v-11.1849c-1.1364-.3496-2.3161-.568-3.4516-.6993-.2625-.7863-.3496-1.5726-.1746-2.3156,2.1402-.7859,4.718-1.3539,7.2957-1.5722l.5684.3492c.1746.4809.4367,1.3543.655,2.2719,2.0098-1.5726,4.2384-2.6653,6.947-2.6653,3.5391,0,6.5098,2.0973,6.5098,6.8599v8.0825c0,1.1797.0438,2.2281.1308,3.277,1.1364.1308,2.4907.4367,3.277.7863,0,.8301-.0875,2.0535-.3059,2.5336-1.1355-.0433-4.1504-.0871-5.5922-.0871-2.2281,0-3.8883.0871-5.3743.0871-.1308-.4367-.2617-1.6164-.2617-2.5336.9176-.175,2.0094-.4371,2.7091-.743.1304-.9609.1746-1.5726.1746-2.4465v-6.7282c0-3.0149-.4809-5.243-3.6704-5.243-1.3543,0-2.7961.5675-4.1942,1.4418v9.6556c0,1.1797.0438,2.2281.1313,3.277,1.0922.1308,2.3152.4367,3.0582.7863,0,.8301-.0871,2.0535-.2621,2.5336-1.136-.0433-3.9758-.0871-5.4609-.0871-2.5345,0-4.4134.0871-6.0736.0871-.1746-.4367-.3054-1.6164-.3054-2.5336"/>
  <path class="st0" d="M179.5518,140.6403c0-5.5922,4.1504-11.5345,10.0056-11.5345,6.4223,0,8.1695,4.6755,8.1695,8.345,0,1.0051-.0871,1.9227-.3054,2.5345l-.4809.4367c-2.534-.0438-5.9419-.0871-9.1313-.0871h-2.9707c.2621,3.1895,1.7035,6.859,5.636,6.859,1.8348,0,3.7137-.4805,6.3352-1.5293.6117.5247.8734,1.2677.9614,2.2281-2.0978,1.6173-5.6802,3.3208-8.7384,3.3208-6.6407,0-9.481-4.6747-9.481-10.5732M187.8968,127.0964l-5.243-7.7333c.4371-.8301,1.1364-1.3543,2.0098-1.7039l4.981,4.7621,4.6309-4.7621c.8743.175,1.5293.743,1.9227,1.5293l-4.8059,7.5145c-1.1797.3058-2.3157.4371-3.4954.3934M184.9256,137.4946h2.2723c2.2715,0,4.15-.0438,5.2426-.1308,0-2.4907-.6117-4.7188-3.6262-4.7188-.6555,0-1.7914.3063-2.1848.743-.7426.9614-1.398,2.3152-1.7039,4.1067"/>
  <path class="st0" d="M201.1347,148.1117c1.2235-.1313,2.6215-.4371,3.4949-.743.1313-.9609.175-1.5726.175-2.4465v-11.1849c-1.1364-.3496-2.3161-.568-3.4516-.6993-.2625-.7863-.3496-1.5726-.1746-2.3156,2.1406-.7859,4.718-1.3539,7.2957-1.5722l.5684.3492c.1746.4809.4367,1.3543.655,2.2719,2.0102-1.5726,4.2384-2.6653,6.947-2.6653,3.5391,0,6.5098,2.0973,6.5098,6.8599v8.0825c0,1.1797.0438,2.2281.1308,3.277,1.1364.1308,2.4907.4367,3.277.7863,0,.8301-.0875,2.0535-.3059,2.5336-1.1355-.0433-4.1504-.0871-5.5922-.0871-2.2281,0-3.8883.0871-5.3743.0871-.1308-.4367-.2617-1.6164-.2617-2.5336.9176-.175,2.0094-.4371,2.7091-.743.1304-.9609.1746-1.5726.1746-2.4465v-6.7282c0-3.0149-.4809-5.243-3.6704-5.243-1.3543,0-2.7961.5675-4.1942,1.4418v9.6556c0,1.1797.0438,2.2281.1313,3.277,1.0922.1308,2.3152.4367,3.0582.7863,0,.8301-.0871,2.0535-.2621,2.5336-1.136-.0433-3.9758-.0871-5.4614-.0871-2.534,0-4.413.0871-6.0732.0871-.1746-.4367-.3054-1.6164-.3054-2.5336"/>
  <path class="st0" d="M228.1354,148.1117c1.2235-.1313,2.6215-.4371,3.4949-.743.1313-.9609.175-1.5726.175-2.4465v-23.2436c-1.136-.3054-2.3156-.568-3.4516-.6988-.2621-.7426-.3496-1.4856-.1746-2.2719,2.5778-.9176,5.6797-1.4418,8.5634-1.5731l.4804.4371c-.1308,4.3688-.175,7.777-.175,12.583v8.1262c1.1797-.3934,2.4036-.7868,3.452-1.1359l3.7575-4.1942-3.0153-.7426c0-.8738.1313-1.9227.3496-2.5345,1.5293,0,3.7575.0875,6.5103.0875,1.3106,0,2.7524-.0438,4.0196-.0875.1746.5247.2617,1.6606.2617,2.4907-1.0918.3934-2.2715.7426-3.4079.8734l-5.0243,5.4614c1.4418,2.6653,3.4079,5.8106,4.7626,7.4279,1.0917,1.223,1.791,1.7472,3.2766,1.7472.393,0,.9176-.0438,1.3543-.1308.3934.6117.6117,1.4418.4804,2.2281-.9171.5238-3.8883,1.3106-6.291,1.3106-2.9711,0-5.636-5.3739-7.5587-10.5732l-2.9274.7426v2.7966c0,1.1797.0442,2.2281.1313,3.277,1.1797.1308,2.4907.4367,3.277.7863,0,.8301-.0875,2.0535-.2625,2.5336-1.1797-.0433-4.1504-.0871-5.6793-.0871-2.5345,0-4.413.0871-6.0736.0871-.1741-.4367-.3054-1.6164-.3054-2.5336"/>
  <path class="st0" d="M255.5288,145.8398c0-4.8063,6.8157-7.4274,11.9275-8.5196-.0875-2.8836-.7426-4.8501-3.0582-4.8501-.9614,0-2.0098.0438-2.9711.2625-.3059,1.0484-.3492,2.2281-.3492,3.3641-1.0926.5242-2.1848.7426-3.3208.4371-.7863-1.311-1.2668-3.1024-1.2668-5.0247,2.4027-1.398,5.5922-2.359,8.8688-2.359,2.7091,0,7.3404.9609,7.3404,7.034v7.8641c0,.9614.0433,2.2281.1746,3.1895.9609-.1313,1.8785-.3496,2.7961-.5684.4371.3934.7868,1.0051.7868,1.7481-1.486,1.4851-3.8012,2.7961-5.8548,2.7961-1.0051,0-2.0098-1.2235-2.6215-3.0149-2.1411,1.7481-4.6313,3.0149-6.7286,3.0149-3.5824,0-5.7231-1.9227-5.7231-5.3739M263.8738,147.1941c1.0047,0,2.4032-.6992,3.5824-1.5731v-4.8492c-2.6215.3496-5.1993.9614-5.636,1.3543-.5242.4367-.8738,1.5726-.8738,2.359,0,1.4423.9614,2.7091,2.9274,2.7091"/>
</svg>